#!OML:ASF G:\JayActor3\Patient Classification 1\Patient 1\Session 6\male.ASF
:FULLY-SPECIFIED
:DEGREES
1978
root 8.19255 15.1963 -19.4758 192.547 -55.2608 -179.264
lowerback 35.1776 -0.117653 2.24456
upperback 17.0952 -2.96195 -2.56022
thorax 0.826101 -2.45753 -2.99074
lowerneck 3.37479 -0.14184 2.82745
upperneck -37.5075 -1.94093 1.84343
head -13.1558 -2.90716 0.783003
rclavicle -1.12115e-013 -4.73108e-014
rhumerus 32.0865 -8.8945 -17.5373
rradius 123.198
rwrist -59.618
rhand -38.57 -11.447
rfingers 7.12502
rthumb -11.589 -41.1066
lclavicle -1.12115e-013 -4.73108e-014
lhumerus -5.38799 -11.5163 64.4616
lradius 64.1474
lwrist 31.0968
lhand -18.6997 10.3517
lfingers 7.12502
lthumb 7.59499 40.1954
rfemur -52.5642 -6.97409 22.9012
rtibia 64.1291
rfoot -24.7901 -17.9271
rtoes -5.15268
lfemur -52.4513 12.0007 -25.7964
ltibia 56.3311
lfoot -17.0536 7.88185
ltoes 0.801996
1979
root 8.19624 15.1935 -19.4721 192.542 -55.3226 -179.284
lowerback 35.2207 -0.11742 2.32696
upperback 17.1307 -2.94707 -2.60302
thorax 0.847084 -2.44425 -3.08356
lowerneck 3.40948 -0.151666 2.93105
upperneck -37.4336 -1.92963 1.80114
head -13.1319 -2.90053 0.742851
rclavicle -4.92986e-014 -5.24792e-014
rhumerus 31.8909 -8.85737 -17.5124
rradius 123.344
rwrist -59.6699
rhand -38.5309 -11.43
rfingers 7.12502
rthumb -11.5513 -41.0916
lclavicle -4.92986e-014 -5.24792e-014
lhumerus -5.29546 -11.6285 64.3792
lradius 64.2108
lwrist 31.0944
lhand -18.7065 10.3492
lfingers 7.12502
lthumb 7.58844 40.193
rfemur -52.58 -7.0077 22.8866
rtibia 64.1697
rfoot -24.8026 -17.9502
rtoes -5.17493
lfemur -52.4673 11.9747 -25.816
ltibia 56.3512
lfoot -17.0524 7.84223
ltoes 0.873088
1980
root 8.2005 15.191 -19.4695 192.525 -55.3389 -179.296
lowerback 35.2766 -0.0864945 2.36284
upperback 17.1598 -2.90867 -2.63863
thorax 0.859629 -2.42343 -3.15083
lowerneck 3.45574 -0.15766 3.02409
upperneck -37.3614 -1.9145 1.75445
head -13.1111 -2.88975 0.702619
rclavicle 3.65764e-014 7.63333e-014
rhumerus 31.6877 -8.78743 -17.4968
rradius 123.508
rwrist -59.7392
rhand -38.4861 -11.4257
rfingers 7.12502
rthumb -11.5081 -41.0898
lclavicle 3.65764e-014 7.63333e-014
lhumerus -5.22907 -11.7321 64.3049
lradius 64.2833
lwrist 31.0996
lhand -18.7314 10.3442
lfingers 7.12502
lthumb 7.56444 40.189
rfemur -52.5854 -6.99519 22.8717
rtibia 64.1993
rfoot -24.8034 -17.983
rtoes -5.22889
lfemur -52.4737 12.0006 -25.8356
ltibia 56.3694
lfoot -17.0557 7.79778
ltoes 0.937219
1981
root 8.20532 15.1886 -19.4681 192.507 -55.319 -179.308
lowerback 35.3403 -0.029919 2.3551
upperback 17.1829 -2.85182 -2.66876
thorax 0.865599 -2.39709 -3.19455
lowerneck 3.49978 -0.162462 3.10002
upperneck -37.2833 -1.89676 1.71763
head -13.0867 -2.87628 0.66878
rclavicle -5.1684e-014 -6.71892e-014
rhumerus 31.4858 -8.70702 -17.4833
rradius 123.679
rwrist -59.8402
rhand -38.4327 -11.4346
rfingers 7.12502
rthumb -11.4566 -41.1015
lclavicle -5.1684e-014 -6.71892e-014
lhumerus -5.18435 -11.8294 64.2325
lradius 64.3619
lwrist 31.1148
lhand -18.7684 10.3428
lfingers 7.12502
lthumb 7.52869 40.1888
rfemur -52.5881 -6.94285 22.8541
rtibia 64.2249
rfoot -24.801 -18.0216
rtoes -5.29233
lfemur -52.4776 12.0686 -25.8584
ltibia 56.389
lfoot -17.0633 7.74786
ltoes 0.992406
1982
root 8.21071 15.1864 -19.468 192.49 -55.2614 -179.319
lowerback 35.4083 0.0534919 2.30332
upperback 17.2025 -2.77576 -2.69513
thorax 0.868528 -2.36486 -3.21679
lowerneck 3.52571 -0.169687 3.16165
upperneck -37.1948 -1.88152 1.69621
head -13.0536 -2.86395 0.643328
rclavicle 1.66979e-014 -8.62725e-014
rhumerus 31.2888 -8.63132 -17.4692
rradius 123.853
rwrist -59.9728
rhand -38.3703 -11.4558
rfingers 7.12502
rthumb -11.3964 -41.1261
lclavicle 1.66979e-014 -8.62725e-014
lhumerus -5.15749 -11.9211 64.1577
lradius 64.4469
lwrist 31.1368
lhand -18.8098 10.3447
lfingers 7.12502
lthumb 7.48878 40.1921
rfemur -52.5919 -6.84918 22.8342
rtibia 64.2471
rfoot -24.8003 -18.0602
rtoes -5.32762
lfemur -52.4834 12.1795 -25.8844
ltibia 56.4107
lfoot -17.0753 7.69299
ltoes 1.03436
1983
root 8.21649 15.1842 -19.4685 192.468 -55.187 -179.319
lowerback 35.4779 0.146671 2.22833
upperback 17.2196 -2.69485 -2.71583
thorax 0.869349 -2.33231 -3.2223
lowerneck 3.52895 -0.180313 3.2026
upperneck -37.0999 -1.87239 1.69231
head -13.0124 -2.8545 0.628808
rclavicle 1.59028e-015 3.73715e-014
rhumerus 31.1237 -8.57935 -17.4458
rradius 124.014
rwrist -60.138
rhand -38.2891 -11.5041
rfingers 7.12502
rthumb -11.3181 -41.1787
lclavicle 1.59028e-015 3.73715e-014
lhumerus -5.14836 -11.9932 64.0853
lradius 64.5343
lwrist 31.1588
lhand -18.8452 10.3517
lfingers 7.12502
lthumb 7.4546 40.2003
rfemur -52.5994 -6.73433 22.8214
rtibia 64.2668
rfoot -24.8004 -18.0997
rtoes -5.35561
lfemur -52.4955 12.3128 -25.9062
ltibia 56.435
lfoot -17.0865 7.63833
ltoes 1.05165
1984
root 8.22221 15.1822 -19.4689 192.44 -55.1228 -179.305
lowerback 35.5453 0.229278 2.15972
upperback 17.2348 -2.62425 -2.73273
thorax 0.868318 -2.30441 -3.22409
lowerneck 3.51354 -0.19722 3.22723
upperneck -36.9996 -1.87335 1.70427
head -12.9647 -2.85006 0.624335
rclavicle -1.66979e-014 6.67916e-014
rhumerus 30.9912 -8.55428 -17.4114
rradius 124.162
rwrist -60.328
rhand -38.2143 -11.5611
rfingers 7.12502
rthumb -11.246 -41.2397
lclavicle -1.66979e-014 6.67916e-014
lhumerus -5.15613 -12.0476 64.0157
lradius 64.62
lwrist 31.1738
lhand -18.8756 10.3531
lfingers 7.12502
lthumb 7.42527 40.2028
rfemur -52.6103 -6.62598 22.8184
rtibia 64.2843
rfoot -24.8082 -18.1307
rtoes -5.35132
lfemur -52.5159 12.4368 -25.9189
ltibia 56.461
lfoot -17.0949 7.58649
ltoes 1.05168
1985
root 8.22744 15.1802 -19.4686 192.406 -55.0901 -179.279
lowerback 35.6086 0.286069 2.11543
upperback 17.2516 -2.57728 -2.74453
thorax 0.868708 -2.2865 -3.22635
lowerneck 3.47707 -0.216171 3.23675
upperneck -36.8987 -1.88252 1.72087
head -12.9123 -2.84908 0.625206
rclavicle -7.15625e-015 -6.75868e-015
rhumerus 30.8868 -8.52858 -17.3785
rradius 124.308
rwrist -60.4991
rhand -38.143 -11.6265
rfingers 7.12502
rthumb -11.1772 -41.3088
lclavicle -7.15625e-015 -6.75868e-015
lhumerus -5.1777 -12.0749 63.9561
lradius 64.6998
lwrist 31.1714
lhand -18.893 10.3472
lfingers 7.12502
lthumb 7.40846 40.1975
rfemur -52.6224 -6.55106 22.8272
rtibia 64.2987
rfoot -24.8169 -18.1554
rtoes -5.34445
lfemur -52.5416 12.5271 -25.9213
ltibia 56.4865
lfoot -17.0992 7.54006
ltoes 1.05476
1986
root 8.23209 15.1784 -19.4675 192.366 -55.0865 -179.241
lowerback 35.6682 0.318483 2.09992
upperback 17.2664 -2.54993 -2.75334
thorax 0.866777 -2.27596 -3.23466
lowerneck 3.44566 -0.234803 3.24352
upperneck -36.8082 -1.8957 1.7298
head -12.8658 -2.84943 0.624565
rclavicle -2.06736e-014 3.4191e-014
rhumerus 30.799 -8.49322 -17.3444
rradius 124.458
rwrist -60.6507
rhand -38.1036 -11.6823
rfingers 7.12502
rthumb -11.1392 -41.3667
lclavicle -2.06736e-014 3.4191e-014
lhumerus -5.21197 -12.0904 63.9049
lradius 64.7687
lwrist 31.1537
lhand -18.9033 10.3329
lfingers 7.12502
lthumb 7.39851 40.1835
rfemur -52.6338 -6.5085 22.8465
rtibia 64.3095
rfoot -24.8249 -18.1734
rtoes -5.32548
lfemur -52.5701 12.5826 -25.913
ltibia 56.5106
lfoot -17.099 7.50137
ltoes 1.05414
1987
root 8.23579 15.1768 -19.4654 192.33 -55.1254 -179.209
lowerback 35.7254 0.318037 2.11507
upperback 17.2796 -2.55161 -2.75831
thorax 0.861746 -2.27723 -3.24617
lowerneck 3.41979 -0.244417 3.24466
upperneck -36.7251 -1.90391 1.71688
head -12.8237 -2.84442 0.61615
rclavicle 8.82604e-014 -1.96002e-013
rhumerus 30.7305 -8.44497 -17.3106
rradius 124.618
rwrist -60.7818
rhand -38.1263 -11.7398
rfingers 7.12502
rthumb -11.161 -41.423
lclavicle 8.82604e-014 -1.96002e-013
lhumerus -5.25904 -12.0885 63.8676
lradius 64.8201
lwrist 31.1199
lhand -18.9033 10.3096
lfingers 7.12502
lthumb 7.39847 40.1603
rfemur -52.641 -6.51537 22.8667
rtibia 64.3182
rfoot -24.8328 -18.184
rtoes -5.29355
lfemur -52.5948 12.5857 -25.9011
ltibia 56.531
lfoot -17.0957 7.47014
ltoes 1.06952
1988
root 8.23915 15.1754 -19.4635 192.287 -55.1602 -179.173
lowerback 35.7833 0.319032 2.12608
upperback 17.2924 -2.55276 -2.75848
thorax 0.856456 -2.27891 -3.2506
lowerneck 3.3877 -0.239931 3.24115
upperneck -36.6442 -1.89922 1.68279
head -12.7814 -2.83055 0.598809
rclavicle -6.59965e-014 -3.18055e-015
rhumerus 30.6721 -8.38788 -17.2756
rradius 124.781
rwrist -60.8699
rhand -38.1629 -11.7525
rfingers 7.12502
rthumb -11.1964 -41.4338
lclavicle -6.59965e-014 -3.18055e-015
lhumerus -5.30714 -12.0777 63.8393
lradius 64.8507
lwrist 31.0797
lhand -18.8957 10.2902
lfingers 7.12502
lthumb 7.40581 40.1406
rfemur -52.6413 -6.51914 22.888
rtibia 64.3235
rfoot -24.8319 -18.2032
rtoes -5.29268
lfemur -52.6119 12.5878 -25.8845
ltibia 56.5491
lfoot -17.0933 7.44284
ltoes 1.08559
1989
root 8.24227 15.1739 -19.462 192.253 -55.1879 -179.147
lowerback 35.8362 0.327453 2.1301
upperback 17.3051 -2.54677 -2.75994
thorax 0.853242 -2.27738 -3.25506
lowerneck 3.35424 -0.226769 3.24923
upperneck -36.5678 -1.88531 1.6316
head -12.7411 -2.81216 0.571878
rclavicle -4.45278e-014 2.54444e-014
rhumerus 30.6017 -8.32618 -17.2459
rradius 124.946
rwrist -60.9085
rhand -38.2 -11.7338
rfingers 7.12502
rthumb -11.2322 -41.4131
lclavicle -4.45278e-014 2.54444e-014
lhumerus -5.33991 -12.08 63.8059
lradius 64.8542
lwrist 31.0456
lhand -18.8851 10.2754
lfingers 7.12502
lthumb 7.41606 40.1254
rfemur -52.6411 -6.5135 22.9011
rtibia 64.3288
rfoot -24.8284 -18.2286
rtoes -5.31251
lfemur -52.6251 12.5907 -25.8726
ltibia 56.564
lfoot -17.0905 7.41938
ltoes 1.09513
